# xmcd
#
# Track frame offsets: 
#        150
#        13660
#        24710
#        48193
#        60605
#        74438
#        96663
#        113655
#        129345
#        142863
#        157468
#        205225
#
# Disc length: 2944 seconds
#
# Revision: 1
# Processed by: cddbd v1.5.2PL0 Copyright (c) Steve Scherf et al.
# Submitted via: ExactAudioCopy v0.99pb3
#
DISCID=ac0b7e0c
DTITLE=Dzamble I Andrzej Zaucha - Dzamble I Andrzej Zaucha (1970-75)
DYEAR=1993
DGENRE=Polish Pop/Rock
TTITLE0=Opusc moje sny
TTITLE1=Chcialbym sie zabawic
TTITLE2=Swieto strachow
TTITLE3=Hej, pomozcie ludzie
TTITLE4=Musze miec dziewczyne
TTITLE5=Naga rzeka
TTITLE6=Dziewczyna, w ktora wierze
TTITLE7=Masz przewrocone w glowie
TTITLE8=Wymyslilem ciebie
TTITLE9=Szczescie nosi twoje imie
TTITLE10=Wolanie o slonce nad swiatem
TTITLE11=Ksiezniczka
EXTD=plyta zawiera caly material oryginalnej plyty "Wolanie o slonce n
EXTD=ad swiatem" and 3 nagrania \ndodatkowe: Opusc moje sny (1),  Chcial
EXTD=bym sie zabawic (2),  Ksiezniczka (12) \nUtwory pochodza z archiw
EXTD=um muzycznego Polskich Nagran - remaster z oryginalnych \ntasm st
EXTD=udyjnych - (1-11) Dzamble, (12) Zespol Piotra Figla, Alibabki. Nag
EXTD=ran dokonano \nw latach: (1-2) 1970r., (3-11) 1971r., (12) - 1975
EXTD=r.\nJerzy Horwat - piano, organ\nMarian Pawlik - bass guitar, gui
EXTD=tar\nJerzy Bezucga - drums\nAndrzej Zaucha - vocal\n&\nMarek Alas
EXTD=zewski - vocal\nJerzy Bartz - percussion\nJozef Gawrych - percuss
EXTD=ion\nJanusz Muniak - tenor and soprano sax, flute\nZbigniew Seifert
EXTD=alto sax\nTomasz Stanko - trumpet\nMichal Urbaniak - tenor, so
EXTD=prano and baritone sax, violin
EXTT0=
EXTT1=
EXTT2=
EXTT3=
EXTT4=
EXTT5=
EXTT6=
EXTT7=
EXTT8=
EXTT9=
EXTT10=
EXTT11=
PLAYORDER=
